<svg id="Gradient" height="512" viewBox="0 0 512 512" width="512" xmlns="http://www.w3.org/2000/svg" xmlns:xlink="http://www.w3.org/1999/xlink"><linearGradient id="linear-gradient" gradientUnits="userSpaceOnUse" x1="256" x2="256" y1="496" y2="16"><stop offset="0" stop-color="#27c1e6"/><stop offset=".5" stop-color="#c275e9"/><stop offset="1" stop-color="#f2515d"/></linearGradient><path d="m496 376v-336a24.028 24.028 0 0 0 -24-24h-432a24.028 24.028 0 0 0 -24 24v336a24.028 24.028 0 0 0 24 24h158.556l-13.333 80h-33.223a8 8 0 0 0 0 16h208a8 8 0 0 0 0-16h-33.223l-13.333-80h68.613l69.589 69.589a24 24 0 0 0 33.941 0 24.028 24.028 0 0 0 0-33.941l-35.648-35.648h22.061a24.028 24.028 0 0 0 24-24zm-174.459-59.144 11.313-11.314 33.94 33.94-11.314 11.318zm-13.765-8.862-21.852-5.463a23.893 23.893 0 0 1 -17.565-17.886l-9.686-41.972 41.972 9.686a23.893 23.893 0 0 1 17.886 17.565l5.463 21.852zm32.3-17.855-6.024-24.1a39.825 39.825 0 0 0 -29.812-29.274l-54.44-12.56a8 8 0 0 0 -9.594 9.594l12.564 54.443a40 40 0 0 0 7.545 15.758h-228.315v-208h448v208h-126.061zm-300.076-258.139h432a8.009 8.009 0 0 1 8 8v40h-448v-40a8.009 8.009 0 0 1 8-8zm270.556 448h-109.112l13.333-80h82.446zm-270.556-96a8.009 8.009 0 0 1 -8-8v-56h257.828l16.306 4.076 59.923 59.924zm434.273 74.275a8 8 0 0 1 -11.314 0l-96.165-96.165 11.314-11.31 96.165 96.165a8.01 8.01 0 0 1 0 11.31zm-104.334-138.275h110.061v56a8.009 8.009 0 0 1 -8 8h-38.061zm-89.939 24a8 8 0 0 1 -8 8h-32a8 8 0 0 1 0-16h32a8 8 0 0 1 8 8zm-232-288a8 8 0 1 1 8 8 8 8 0 0 1 -8-8zm32 0a8 8 0 1 1 8 8 8 8 0 0 1 -8-8zm32 0a8 8 0 1 1 8 8 8 8 0 0 1 -8-8zm-16 64a8 8 0 0 1 8-8h16a8 8 0 0 1 0 16h-16a8 8 0 0 1 -8-8zm48 0a8 8 0 0 1 8-8h16a8 8 0 0 1 0 16h-16a8 8 0 0 1 -8-8zm-64 160a8 8 0 0 1 -8 8h-16a8 8 0 0 1 -8-8v-16a8 8 0 0 1 16 0v8h8a8 8 0 0 1 8 8zm48 0a8 8 0 0 1 -8 8h-16a8 8 0 0 1 0-16h16a8 8 0 0 1 8 8zm48 0a8 8 0 0 1 -8 8h-16a8 8 0 0 1 0-16h16a8 8 0 0 1 8 8zm48-160v16a8 8 0 0 1 -16 0v-8h-8a8 8 0 0 1 0-16h16a8 8 0 0 1 8 8zm0 48v16a8 8 0 0 1 -16 0v-16a8 8 0 0 1 16 0zm0 48v16a8 8 0 0 1 -16 0v-16a8 8 0 0 1 16 0zm0 48v16a8 8 0 0 1 -8 8h-16a8 8 0 0 1 0-16h8v-8a8 8 0 0 1 16 0zm-176-128v-16a8 8 0 0 1 8-8h16a8 8 0 0 1 0 16h-8v8a8 8 0 0 1 -16 0zm0 48v-16a8 8 0 0 1 16 0v16a8 8 0 0 1 -16 0zm0 48v-16a8 8 0 0 1 16 0v16a8 8 0 0 1 -16 0zm256-32a8 8 0 0 1 -8 8h-48a8 8 0 0 1 0-16h48a8 8 0 0 1 8 8zm160 0a8 8 0 0 1 -8 8h-128a8 8 0 0 1 0-16h128a8 8 0 0 1 8 8zm0 32a8 8 0 0 1 -8 8h-112a8 8 0 0 1 0-16h112a8 8 0 0 1 8 8zm-8-120h-208a8 8 0 0 0 -8 8v48a8 8 0 0 0 8 8h208a8 8 0 0 0 8-8v-48a8 8 0 0 0 -8-8zm-8 48h-192v-32h192zm-256-8a8 8 0 0 0 -8-8h-96a8 8 0 0 0 -8 8v96a8 8 0 0 0 8 8h96a8 8 0 0 0 8-8zm-16 88h-80v-80h80z" fill="url(#linear-gradient)"/></svg>