<svg height="512" viewBox="0 0 64 64" width="512" xmlns="http://www.w3.org/2000/svg"><g id="Graphic_Designer-Computer-Monitor-Graphic_Tablet-Designer" data-name="Graphic Designer-Computer-Monitor-Graphic Tablet-Designer"><path d="m51.877 49.013-1.664 1.11 3.918 5.877h-44.263l4.667-7h25.407v-2h-25.942a1 1 0 0 0 -.832.445l-6 9a1.006 1.006 0 0 0 -.168.555v3a2 2 0 0 0 2 2h46a2 2 0 0 0 2-2v-3a1.006 1.006 0 0 0 -.168-.555zm-42.877 10.987v-2h46v2z"/><path d="m52 2h-40a3.009 3.009 0 0 0 -3 3v26a3.009 3.009 0 0 0 3 3h14v4h-4a1 1 0 0 0 -1 1v4a1 1 0 0 0 1 1h20a1 1 0 0 0 1-1v-4a1 1 0 0 0 -1-1h-4v-4h14a3.009 3.009 0 0 0 3-3v-26a3.009 3.009 0 0 0 -3-3zm-11 38v2h-18v-2zm-13-2v-4h8v4zm25-7a1 1 0 0 1 -1 1h-40a1 1 0 0 1 -1-1v-3h42zm0-5h-42v-21a1 1 0 0 1 1-1h40a1 1 0 0 1 1 1z"/><path d="m47 29h2v2h-2z"/><path d="m23 24h4a1 1 0 0 0 1-1v-1h8v1a1 1 0 0 0 1 1h4a1 1 0 0 0 1-1v-4a1 1 0 0 0 -1-1h-1v-6h1a1 1 0 0 0 1-1v-4a1 1 0 0 0 -1-1h-4a1 1 0 0 0 -1 1v1h-8v-1a1 1 0 0 0 -1-1h-4a1 1 0 0 0 -1 1v4a1 1 0 0 0 1 1h1v6h-1a1 1 0 0 0 -1 1v4a1 1 0 0 0 1 1zm17-2h-2v-2h2zm-2-14h2v2h-2zm-14 0h2v2h-2zm2 4h1a1 1 0 0 0 1-1v-1h8v1a1 1 0 0 0 1 1h1v6h-1a1 1 0 0 0 -1 1v1h-8v-1a1 1 0 0 0 -1-1h-1zm-2 8h2v2h-2z"/><path d="m23 52h14v2h-14z"/><path d="m59.87 36.84-2.83-2.83a.99.99 0 0 0 -.71-.29.967.967 0 0 0 -.7.29l-13.44 13.44a.983.983 0 0 0 -.24.39l-.71 2.12a1.01 1.01 0 0 0 .24 1.02l-1.41 1.42 1.41 1.41 1.42-1.41a.984.984 0 0 0 .7.29 1.127 1.127 0 0 0 .32-.05l2.12-.71a.983.983 0 0 0 .39-.24l13.44-13.44a1 1 0 0 0 0-1.41zm-14.68 13.27-1.31.43-.55-.54.44-1.31 9.73-9.73 1.42 1.41zm11.14-11.15-1.41-1.41 1.41-1.42 1.42 1.42z"/></g></svg>